<svg xmlns="http://www.w3.org/2000/svg" viewBox="0 0 176 176"><title>Sauvegarder</title><g id="Sauvegarder" data-name="Sauvegarder"><g id="Calque_1-2" data-name="Calque 1"><path d="M88.38,175.82c-26.06,0-52.11-.18-78.17.11C2.9,176,0,173.72,0,166.06Q.35,87.91,0,9.74C0,2.84,2.25,0,9.46,0,54.6.2,99.74,0,144.88.29a16.83,16.83,0,0,1,10.29,4.25c20.76,19,20.67,19.14,20.67,47.16,0,37.57-.21,75.13.16,112.7.08,8.54-2.35,11.77-11.28,11.59C139.28,175.5,113.82,175.82,88.38,175.82Zm65.33-11.46c9.65,3.15,12.21.16,12.13-8.16C165.51,120.12,165.11,84,166,48c.34-13.22-3-22.85-13-31.63-6.62-5.81-12.63-7.16-21.27-4.9,0,14.35-.41,28.55.15,42.71.34,8.54-2.16,11.93-11.23,11.7-21.82-.56-43.67-.49-65.49,0-8.4.18-11.28-2.65-11-11,.55-14.44.15-28.9.15-44.52-9.54,0-18,.29-26.36-.1-6-.28-7.8,2.08-7.78,7.92q.27,70.05.07,140.1c0,4.4.34,7.61,6.16,7.57,6,0,5.91-3.58,5.89-7.79-.07-15.77.39-31.55-.18-47.3C21.79,101.92,24.69,99,33.5,99.13q54.57.62,109.15,0c9.1-.12,11.46,3.14,11.22,11.65C153.36,128.62,153.71,146.44,153.71,164.36ZM142.83,110.2H33.2v54.93H142.83ZM55.11,54.66h65.46V10.35l-10.9.49c0,3.9,0,6.9,0,9.9-.51,25.82,5,22.59-24.36,22.83-5.76,0-8.2-2.5-8-8.29.24-8,.06-16.1.06-24.36H55.11ZM98.6,32.84V10.93H88.37V32.84Z"/></g></g><script xmlns=""/></svg>