<svg xmlns="http://www.w3.org/2000/svg" viewBox="0 0 129.16 198.56">
  <defs>
    <style>
      .cls-1{fill:red;}
      .cls-2{fill:#fff;}
    </style>
  </defs>
  <title>Corbeille</title>
  <g id="Corbeille" data-name="Corbeille">
    <path class="cls-1" d="M125.93,65.38c-.61,13-1.26,26.05-1.86,39.07-1.2,25.88-2.57,51.75-3.44,77.64-.3,8.84-6.79,16.6-17.47,16.47-26.34-.31-52.69-.09-79-.11a18.3,18.3,0,0,1-3.91-.35c-7.93-1.73-12.13-7.6-12.56-17Q5.12,124.42,2.49,67.77c-.09-2.15,0-4.3,0-6.6H125.94C125.94,62.77,126,64.08,125.93,65.38ZM59,177.72c0,2.15.72,3.75,2.76,4.6s4.3.93,5.86-.74a6.73,6.73,0,0,0,1.6-4.15c.15-9.19.09-18.38.09-27.57q0-30,0-60.11c0-4.42-3.49-6.88-7.33-5.26-2.24,1-3,2.65-2.95,5,.06,14.62,0,29.23,0,43.84Q59,155.53,59,177.72Zm29.8-.39c-.08,3.6,2,5.63,5.44,5.5,3-.11,4.65-1.78,4.73-5.06q.84-33.06,1.65-66.12c.18-7.35.39-14.7.53-22.05.07-3.57-1.81-5.54-5.12-5.53-3.16,0-5,1.88-5,5.35q-.56,22.17-1.09,44.35h0Q89.36,155.55,88.8,177.33Zm-59.26.34a5.25,5.25,0,0,0,7.36,4.76c2.26-.91,3.09-2.61,3-5q-.57-22.3-1-44.61c-.34-14.52-.71-29-1-43.56,0-2.17-.68-4.11-2.73-4.56a8.47,8.47,0,0,0-5.62.57c-1.13.66-1.87,2.93-1.85,4.46.2,14.61.6,29.22.94,43.83h.05C29,148.28,29.46,163,29.54,177.67Z"/>
    <path class="cls-1" d="M0,31c1.24-2.3,2.32-4.1,3.21-6,2.32-4.94,6.3-7.7,11.37-9.36,8.24-2.68,16.69-2.79,25.2-2.49,4.86.18,4.86.21,6.57-4.37,2.36-6.28,7.23-9.58,13-8.59,8.45,1.45,16.88,3,25.3,4.59A9.8,9.8,0,0,1,92.87,12a23.51,23.51,0,0,1,.78,7.24c-.1,2.2.39,3.22,2.66,3.85a81.1,81.1,0,0,1,23.14,10.3c7.41,4.88,9.75,11.9,9.71,20.84ZM81.53,11C74.41,9.69,67.28,8.39,60.16,7.13c-5-.88-7.65,1.28-8.13,6.79l34.58,6.22C88.35,15.14,86.49,11.83,81.53,11Z"/>
    <path class="cls-2" d="M59,133.35q0,22.18,0,44.37c0,2.15.72,3.75,2.76,4.6s4.3.93,5.86-.74a6.73,6.73,0,0,0,1.6-4.15c.15-9.19.09-18.38.09-27.57q0-30,0-60.11c0-4.42-3.49-6.88-7.33-5.26-2.24,1-3,2.65-2.95,5C59.05,104.13,59,118.74,59,133.35Z"/>
    <path class="cls-2" d="M89.91,133.77q-.55,21.78-1.11,43.56c-.08,3.6,2,5.63,5.44,5.5,3-.11,4.65-1.78,4.73-5.06q.84-33.06,1.65-66.12c.18-7.35.39-14.7.53-22.05.07-3.57-1.81-5.54-5.12-5.53-3.16,0-5,1.88-5,5.35q-.56,22.17-1.09,44.35Z"/>
    <path class="cls-2" d="M28.68,133.58c.32,14.7.78,29.39.86,44.09a5.25,5.25,0,0,0,7.36,4.76c2.26-.91,3.09-2.61,3-5q-.57-22.3-1-44.61c-.34-14.52-.71-29-1-43.56,0-2.17-.68-4.11-2.73-4.56a8.47,8.47,0,0,0-5.62.57c-1.13.66-1.87,2.93-1.85,4.46.2,14.61.6,29.22.94,43.83Z"/>
    <path class="cls-2" d="M86.61,20.14c1.74-5-.12-8.31-5.08-9.19C74.41,9.69,67.28,8.39,60.16,7.13c-5-.88-7.65,1.28-8.13,6.79Z"/>
  </g>
  <script xmlns=""/></svg>