<svg xmlns="http://www.w3.org/2000/svg" viewBox="0 0 190.82 190.85">
  <defs>
    <style>.cls-1{fill:#39c;}</style>
  </defs>
  <title>modifier</title>
  <g id="Modifier" data-name="Modifier">
    <path class="cls-1" d="M112.89.2,100.58,12.4c-4,4-8.09,8-12,12.08a4.92,4.92,0,0,1-3.89,1.64q-27.93-.07-55.86,0H26.2c0,.9-.11,1.62-.11,2.34q0,66.93-.06,133.85c0,2.15.65,2.53,2.63,2.53q66.61-.08,133.24,0c2.84,0,2.84,0,2.84-2.83,0-18.62,0-37.24,0-55.86a4.6,4.6,0,0,1,1.48-3.56q11.32-11.35,22.57-22.8c.52-.52,1.06-1,1.9-1.81.07.88.16,1.42.16,2q0,46.41,0,92.82c0,10.64-7.55,18.14-18.21,18.15q-77.18,0-154.36,0C7.56,190.83,0,183.34,0,172.7Q0,95.42,0,18.13C0,7.74,7.31.11,17.66.07,48.94,0,80.22,0,111.5,0,111.75,0,112,.09,112.89.2Z"/>
    <path class="cls-1" d="M168.78,56.35,92.12,133.09A102.92,102.92,0,0,0,77,113.92,102.12,102.12,0,0,0,57.49,98.81c.45-.52.8-1,1.21-1.39q37-37,74-74.09c1.21-1.22,2.05-1.22,3.44-.5a72.72,72.72,0,0,1,31.39,31C168,54.74,168.45,55.66,168.78,56.35Z"/>
    <path class="cls-1" d="M144,12.06c4-3.92,7.68-7.64,11.45-11.32A2.33,2.33,0,0,1,157,.11c7.61.48,15,1.73,21.64,5.92,6.21,4,8.93,10.15,10.52,16.93a97.77,97.77,0,0,1,1.53,10.41,2.77,2.77,0,0,1-.58,2c-3.62,3.73-7.33,7.38-11.22,11.26A101,101,0,0,0,144,12.06Z"/>
    <path class="cls-1" d="M43.38,147.47V136.23c0-6.43.22-12.87-.08-19.29-.15-3.26.79-5.63,3.36-7.41a2.51,2.51,0,0,1,2.05-.34,71.39,71.39,0,0,1,33,33,2.19,2.19,0,0,1-.24,1.89,8.06,8.06,0,0,1-7.35,3.51c-9.4-.29-18.82-.1-28.23-.1Z"/>
  </g>
<script xmlns=""/></svg>